SplineFontDB: 3.0
FontName: BulmerStM
FullName: Sorts Mill Bulmer
FamilyName: Sorts Mill Bulmer
Weight: Regular
Copyright: Created by trashman with FontForge 2.0 (http://fontforge.sf.net)
UComments: "2010-10-5: Created." 
Version: 001.000
ItalicAngle: 0
UnderlinePosition: -100
UnderlineWidth: 50
Ascent: 680
Descent: 320
LayerCount: 3
Layer: 0 0 "Back"  1
Layer: 1 0 "Fore"  0
Layer: 2 0 "backup"  0
NeedsXUIDChange: 1
XUID: [1021 658 797806517 5336769]
OS2Version: 0
OS2_WeightWidthSlopeOnly: 0
OS2_UseTypoMetrics: 1
CreationTime: 1286303174
ModificationTime: 1287085073
OS2TypoAscent: 0
OS2TypoAOffset: 1
OS2TypoDescent: 0
OS2TypoDOffset: 1
OS2TypoLinegap: 0
OS2WinAscent: 0
OS2WinAOffset: 1
OS2WinDescent: 0
OS2WinDOffset: 1
HheadAscent: 0
HheadAOffset: 1
HheadDescent: 0
HheadDOffset: 1
OS2Vendor: 'PfEd'
MarkAttachClasses: 1
DEI: 91125
Encoding: UnicodeBmp
UnicodeInterp: none
NameList: Adobe Glyph List
DisplaySize: -48
AntiAlias: 1
FitToEm: 1
WinInfo: 77 11 5
BeginPrivate: 9
BlueValues 23 [-16 0 380 396 672 672]
OtherBlues 11 [-279 -269]
BlueScale 8 0.039625
BlueShift 1 7
BlueFuzz 1 0
StdHW 4 [29]
StemSnapH 4 [29]
StdVW 4 [81]
StemSnapV 10 [78 81 91]
EndPrivate
BeginChars: 65536 76

StartChar: a
Encoding: 97 97 0
Width: 409
VWidth: 0
Flags: HW
HStem: -12 54<107.5 199> -12 42<298.55 382.173> 211 19<210.449 250> 371 21<139.541 220.414>
VStem: 40 85<58.5618 138.755 290.788 358.768> 250 81<58.8789 211 230 348.153>
LayerCount: 3
Fore
SplineSet
43 323 m 0xbc
 43 371 123 392 192 392 c 0
 266 392 331 355 331 295 c 2
 331 68 l 2
 331 50 332 30 356 30 c 0
 370 30 381 39 388 49 c 1
 397 31 l 1
 385 0 353 -12 335 -12 c 0x7c
 265 -12 252 54 252 54 c 1
 252 54 233 34 208 16 c 0
 187 1 162 -12 135 -12 c 0
 80 -12 40 26 40 75 c 0
 40 133 91 183 151 207 c 0
 186 221 218 226 250 230 c 1
 250 305 l 2
 250 352 219 371 178 371 c 0
 164 371 149 370 139 362 c 0
 125 351 120 336 120 314 c 0
 120 297 96 284 81 284 c 0
 58 284 43 300 43 323 c 0xbc
250 211 m 1
 250 211 125 196 125 115 c 0
 125 79 144 42 189 42 c 0xbc
 204 42 250 63 250 93 c 2
 250 211 l 1
EndSplineSet
Layer: 2
SplineSet
43 323 m 4xbc
 43 371 123 392 192 392 c 4
 266 392 331 355 331 295 c 6
 331 66 l 6
 331 50 332 30 356 30 c 4
 362 30 369 33 373 37 c 4
 378 42 380 47 385 47 c 4
 394 47 398 40 398 31 c 4
 398 5 364 -12 335 -12 c 4x7c
 265 -12 252 54 252 54 c 5
 252 54 233 34 208 16 c 4
 187 1 162 -12 135 -12 c 4
 80 -12 40 26 40 75 c 4
 40 133 91 183 151 207 c 4
 186 221 218 226 250 230 c 5
 250 305 l 6
 250 352 219 371 178 371 c 4
 164 371 149 370 139 362 c 4
 125 351 120 336 120 314 c 4
 120 297 96 284 81 284 c 4
 58 284 43 300 43 323 c 4xbc
250 211 m 5
 250 211 125 196 125 115 c 4
 125 79 144 42 189 42 c 4xbc
 204 42 250 63 250 93 c 6
 250 211 l 5
EndSplineSet
EndChar

StartChar: b
Encoding: 98 98 1
Width: 492
VWidth: 0
Flags: HW
HStem: -14 31<196.091 298.61> 0 26<15 64.1393> 366 28<211.371 305.634> 627 26<15 64.733> 652 20G<131.5 155.438>
VStem: 72 78<56.4123 317.785 583 622.826> 72 71<28.707 65 316 507.692> 367 91<101.723 285.357>
LayerCount: 3
Fore
SplineSet
146 316 m 1x2b
 165 354 206 394 276 394 c 0
 368 394 458 307 458 192 c 0
 458 90 378 -14 261 -14 c 0
 163 -14 143 65 143 65 c 1
 141 -3 l 1xab
 90 0 63 0 15 0 c 1
 15 26 l 1
 56 27 72 22 72 89 c 2x65
 72 549 l 2
 72 625 70 623 15 627 c 1
 15 653 l 1x73
 61 655 107 662 156 672 c 1
 146 316 l 1x2b
367 190 m 0
 367 280 337 366 257 366 c 0
 227 366 202 353 183 333 c 0
 154 303 150 257 150 200 c 2
 150 169 l 2xa5
 150 78 171 17 245 17 c 0
 343 17 367 126 367 190 c 0
EndSplineSet
Layer: 2
SplineSet
146 316 m 5x76
 165 354 206 394 276 394 c 4
 368 394 458 307 458 192 c 4
 458 90 378 -14 261 -14 c 4
 163 -14 143 65 143 65 c 5
 143 -5 l 5xb6
 92 -2 63 -2 15 -2 c 5
 15 25 l 5
 56 26 72 22 72 89 c 6x7a
 72 549 l 6
 72 625 70 623 15 627 c 5
 15 656 l 5
 61 658 107 665 156 675 c 5
 146 316 l 5x76
367 190 m 4
 367 280 337 366 257 366 c 4
 227 366 202 353 183 333 c 4
 154 303 150 257 150 200 c 6
 150 169 l 6xba
 150 78 171 17 245 17 c 4
 343 17 367 126 367 190 c 4
EndSplineSet
EndChar

StartChar: c
Encoding: 99 99 2
Width: 416
VWidth: 0
Flags: HW
HStem: -16 46<177.891 307.12> 373 23<195.405 290.145>
VStem: 25 91<100.642 269.562> 309 72<270.888 357.538> 357 21<83.2732 94>
LayerCount: 3
Fore
SplineSet
220 -16 m 0xe8
 105 -16 25 74 25 183 c 0
 25 294 129 396 237 396 c 0
 296 396 381 373 381 309 c 0
 381 282 365 267 340 267 c 0
 326 267 309 280 309 296 c 0xf0
 309 317 311 316 311 331 c 0
 311 340 300 373 244 373 c 0
 150 373 116 277 116 191 c 0
 116 114 158 29 247 29 c 0
 303 29 333 52 359 99 c 1
 378 90 l 1
 354 17 286 -16 220 -16 c 0xe8
EndSplineSet
EndChar

StartChar: d
Encoding: 100 100 3
Width: 500
VWidth: 0
Flags: HW
HStem: -14 37<177.465 283.227> 4 28<431.712 479> 366 26<188.462 284.166> 625 31<277 336.152>
VStem: 26 86<90.8497 283.31> 342 75<58.9574 327.715 336 466.618>
LayerCount: 3
Fore
SplineSet
417 225 m 2xbc
 417 188 l 2
 417 139 419 106 422 71 c 0
 424 49 432 32 454 31 c 0
 460 31 479 30 479 30 c 1
 479 4 l 1x7c
 416 3 365 -6 346 -10 c 1
 346 62 l 1
 328 28 274 -14 217 -14 c 0
 73 -14 26 85 26 190 c 0
 26 292 99 392 222 392 c 0
 301 392 342 336 342 336 c 1
 342 524 l 2
 342 613 342 625 306 625 c 0
 298 625 289 625 277 624 c 1
 277 653 l 1
 323 655 377 662 426 672 c 1
 425 650 417 543 417 225 c 2xbc
112 185 m 0
 112 107 153 23 236 23 c 0xbc
 280 23 318 44 331 78 c 0
 338 98 339 124 339 152 c 2
 339 262 l 2
 339 323 302 366 239 366 c 0
 151 366 112 273 112 185 c 0
EndSplineSet
Layer: 2
SplineSet
417 226 m 6xbc
 417 189 l 6
 417 140 419 107 422 72 c 4
 424 50 432 33 454 32 c 4
 460 32 479 31 479 31 c 5
 479 4 l 5x7c
 416 3 365 -6 346 -10 c 5
 346 62 l 5
 328 28 274 -14 217 -14 c 4
 73 -14 26 85 26 190 c 4
 26 292 99 392 222 392 c 4
 301 392 342 336 342 336 c 5
 342 524 l 6
 342 613 342 625 306 625 c 4
 298 625 289 625 277 624 c 5
 277 656 l 5
 323 658 377 665 426 675 c 5
 425 653 417 544 417 226 c 6xbc
112 185 m 4
 112 107 153 23 236 23 c 4xbc
 280 23 318 44 331 78 c 4
 338 98 339 124 339 152 c 6
 339 262 l 6
 339 323 302 366 239 366 c 4
 151 366 112 273 112 185 c 4
EndSplineSet
EndChar

StartChar: e
Encoding: 101 101 4
Width: 406
VWidth: 0
Flags: HW
HStem: -16 51<179.587 301.548> 241 24<122 279.605> 367 29<171.707 261.522>
VStem: 25 91<108.95 237.109> 290 80<247 325.484>
LayerCount: 3
Fore
SplineSet
248 35 m 0
 313 35 337 61 356 114 c 1
 377 109 l 1
 368 51 315 -16 221 -16 c 0
 103 -16 25 65 25 178 c 0
 25 283 105 396 212 396 c 0
 239 396 264 394 286 383 c 0
 338.081030228 356.380806773 370 307.875653336 370 240 c 1
 117 241 l 1
 116 231 116 222 116 213 c 0
 116 99 166 35 248 35 c 0
216 367 m 0
 140 367 122 265 122 265 c 1
 122 265 135 265 242 268 c 0
 268 269 290 270 290 308 c 0
 290 338 254 367 216 367 c 0
EndSplineSet
Layer: 2
SplineSet
248 35 m 4
 313 35 337 61 356 114 c 5
 377 109 l 5
 368 51 315 -16 221 -16 c 4
 103 -16 25 65 25 178 c 4
 25 283 105 396 212 396 c 4
 239 396 264 394 286 383 c 4
 331 360 370 311 370 255 c 4
 370 239 352 239 335 239 c 4
 321 239 117 241 117 241 c 5
 116 231 116 222 116 213 c 4
 116 99 166 35 248 35 c 4
216 367 m 4
 140 367 122 265 122 265 c 5
 122 265 135 265 242 268 c 4
 268 269 290 270 290 308 c 4
 290 338 254 367 216 367 c 4
EndSplineSet
EndChar

StartChar: f
Encoding: 102 102 5
Width: 254
VWidth: 0
Flags: W
HStem: 0 29<26 71.1946 161.983 218> 348 32<29 76 157 228> 651 21<207.218 263.041>
VStem: 76 81<29 348 380 581.726> 262 88<568.528 650.809>
LayerCount: 3
Fore
SplineSet
157 92 m 2
 157 57 160 29 178 29 c 2
 218 29 l 1
 218 -2 l 1
 218 -2 146 0 118 0 c 0
 89 0 26 -2 26 -2 c 5
 26 29 l 1
 56 29 l 2
 73 29 76 57 76 92 c 2
 76 348 l 1
 29 348 l 1
 29 380 l 1
 76 380 l 1
 76 462 l 2
 76 525 85 586 133 630 c 0
 164 658 193 672 252 672 c 0
 297 672 350 661 350 605 c 0
 350 575 322 562 307 562 c 0
 282 562 262 576 262 606 c 0
 262 618 264 628 264 635 c 0
 264 649 256 651 241 651 c 0
 166 651 157 538 157 496 c 2
 157 380 l 1
 228 380 l 1
 228 348 l 1
 157 348 l 1
 157 92 l 2
EndSplineSet
Layer: 2
SplineSet
157 95 m 6
 157 60 160 32 178 32 c 6
 218 32 l 5
 218 -2 l 5
 218 -2 146 0 118 0 c 4
 89 0 26 -2 26 -2 c 5
 26 32 l 5
 56 32 l 6
 73 32 76 60 76 95 c 6
 76 348 l 5
 29 348 l 5
 29 380 l 5
 76 380 l 5
 76 464 l 6
 76 527 85 588 133 632 c 4
 164 660 193 674 252 674 c 4
 297 674 350 663 350 607 c 4
 350 577 322 564 307 564 c 4
 282 564 262 578 262 608 c 4
 262 620 264 630 264 637 c 4
 264 651 256 653 241 653 c 4
 166 653 157 540 157 498 c 6
 157 380 l 5
 228 380 l 5
 228 348 l 5
 157 348 l 5
 157 95 l 6
EndSplineSet
EndChar

StartChar: g
Encoding: 103 103 6
Width: 434
VWidth: 0
Flags: HW
HStem: -279 31<150.156 299.457> -67 17<131.547 160> -56 83<132.919 338.157> 105 19<153.109 218.056> 367 19<159.137 217.697 321.327 378>
VStem: 29 65<-206.318 -87.3221> 32 83<170.21 318.274> 81 46<-6 85.6379> 257 78<166.244 310.154> 368 56<-188.885 -83.5576>
LayerCount: 3
Back
SplineSet
186 386 m 4xf580
 237 386 280 352 280 352 c 5
 280 352 318 392 360 392 c 4
 396 392 422 377 422 342 c 4
 422 326 415 308 395 308 c 4
 353 308 366 361 336 361 c 4
 315 361 294 337 294 337 c 5
 294 337 335 294 335 238 c 4
 335 169 283 105 184 105 c 4
 168 105 127 97 127 66 c 4xf380
 127 37 162 28 194 27 c 4
 327 24 424 27 424 -108 c 4
 424 -245 284 -279 220 -279 c 4
 123 -279 29 -230 29 -142 c 4xf980
 29 -75 87 -53 142 -44 c 5
 110 -33 81 -14 81 32 c 4xf380
 81 86 136 111 136 111 c 5
 136 111 32 132 32 248 c 4
 32 328 106 386 186 386 c 4xf580
94 -142 m 4xf980
 94 -187 121 -248 224 -248 c 4
 311 -248 368 -199 368 -127 c 4
 368 -81 321 -63 265 -59 c 6
 167 -52 l 5
 167 -52 172 -69 160 -69 c 4
 113 -69 94 -111 94 -142 c 4xf980
188 367 m 4
 136 367 115 298 115 240 c 4xf580
 115 189 128 124 184 124 c 4
 242 124 257 181 257 232 c 4
 257 288 245 367 188 367 c 4
EndSplineSet
Fore
SplineSet
81 32 m 0xb9c0
 81 86 136 111 136 111 c 1
 136 111 32 132 32 248 c 0xbac0
 32 328 106 386 186 386 c 0
 237 386 280 352 280 352 c 1
 280 352 318 392 360 392 c 0
 396 392 422 377 422 342 c 0
 422 326 415 308 395 308 c 0
 353 308 366 361 336 361 c 0
 315 361 294 337 294 337 c 1
 294 337 335 294 335 238 c 0
 335 169 283 105 184 105 c 0
 168 105 127 97 127 66 c 0
 127 34 168 28 200 26 c 0xb9c0
 323 20 424 27 424 -108 c 0
 424 -245 284 -279 220 -279 c 0
 123 -279 29 -230 29 -142 c 0
 29 -81 82 -53 130 -50 c 0
 146 -49 160 -54 160 -54 c 1
 162 -67 l 1
 115 -70 94 -108 94 -142 c 0xdcc0
 94 -187 121 -248 224 -248 c 0
 311 -248 368 -199 368 -127 c 0
 368 -70 292 -60 223 -56 c 0
 165 -53 81 -44 81 32 c 0xb9c0
188 367 m 0
 136 367 115 298 115 240 c 0
 115 189 128 124 184 124 c 0
 242 124 257 181 257 232 c 0
 257 288 245 367 188 367 c 0
EndSplineSet
Layer: 2
SplineSet
81 32 m 4xb9c0
 81 86 136 111 136 111 c 5
 136 111 32 132 32 248 c 4xbac0
 32 328 106 386 186 386 c 4
 237 386 280 352 280 352 c 5
 280 352 318 392 360 392 c 4
 396 392 422 377 422 342 c 4
 422 326 415 308 395 308 c 4
 353 308 366 361 336 361 c 4
 315 361 294 337 294 337 c 5
 294 337 335 294 335 238 c 4
 335 169 283 105 184 105 c 4
 168 105 127 97 127 66 c 4
 127 37 162 28 194 27 c 4xb9c0
 327 24 424 27 424 -108 c 4
 424 -245 284 -279 220 -279 c 4
 123 -279 29 -230 29 -142 c 4
 29 -81 82 -53 130 -50 c 4
 146 -49 160 -54 160 -54 c 5
 162 -67 l 5
 115 -70 94 -108 94 -142 c 4xdcc0
 94 -187 121 -248 224 -248 c 4
 311 -248 368 -199 368 -127 c 4
 368 -66 292 -60 223 -56 c 4
 165 -53 81 -44 81 32 c 4xb9c0
188 367 m 4
 136 367 115 298 115 240 c 4
 115 189 128 124 184 124 c 4
 242 124 257 181 257 232 c 4
 257 288 245 367 188 367 c 4
EndSplineSet
EndChar

StartChar: h
Encoding: 104 104 7
Width: 516
VWidth: 0
Flags: HW
HStem: -2 31<31 85.5092 175.654 228 297 349.509 439.654 492> 360 32<236.476 328.831> 625 28<25 84.112>
VStem: 90 81<29 315.151 319 623.873> 354 81<29 339.815>
LayerCount: 3
Fore
SplineSet
171 92 m 2
 171 57 174 29 192 29 c 2
 228 29 l 1
 228 -2 l 1
 228 -2 160 0 132 0 c 0
 103 0 31 -2 31 -2 c 1
 31 29 l 1
 70 29 l 2
 87 29 90 57 90 92 c 2
 90 524 l 2
 90 613 90 625 54 625 c 0
 46 625 37 625 25 624 c 1
 25 653 l 1
 71 655 125 662 174 672 c 1
 174 672 171 429 171 319 c 1
 171 319 210 392 308 392 c 0
 384 392 435 351 435 289 c 2
 435 92 l 2
 435 57 438 29 456 29 c 2
 492 29 l 1
 492 -2 l 1
 492 -2 424 0 396 0 c 0
 367 0 297 -2 297 -2 c 1
 297 29 l 1
 334 29 l 2
 351 29 354 57 354 92 c 2
 354 246 l 2
 354 312 346 360 278 360 c 0
 215 360 171 296 171 268 c 2
 171 92 l 2
EndSplineSet
Layer: 2
SplineSet
171 95 m 6
 171 60 174 32 192 32 c 6
 228 32 l 5
 228 -2 l 5
 228 -2 160 0 132 0 c 4
 103 0 31 -2 31 -2 c 5
 31 32 l 5
 70 32 l 6
 87 32 90 60 90 95 c 6
 90 524 l 6
 90 613 90 625 54 625 c 4
 46 625 37 625 25 624 c 5
 25 656 l 5
 71 658 125 665 174 675 c 5
 174 675 171 429 171 319 c 5
 171 319 210 392 308 392 c 4
 384 392 435 351 435 289 c 6
 435 95 l 6
 435 60 438 32 456 32 c 6
 492 32 l 5
 492 -2 l 5
 492 -2 424 0 396 0 c 4
 367 0 297 -2 297 -2 c 5
 297 32 l 5
 334 32 l 6
 351 32 354 60 354 95 c 6
 354 246 l 6
 354 312 346 360 278 360 c 4
 215 360 171 296 171 268 c 6
 171 95 l 6
EndSplineSet
EndChar

StartChar: i
Encoding: 105 105 8
Width: 255
VWidth: 0
Flags: HW
HStem: 0 32<25 82.5092 172.654 230> 352 29<28 80.4516> 372 20G<28 169.5> 566 108<82.676 169.324>
VStem: 72 108<576.676 663.324> 87 81<32 351.732>
LayerCount: 3
Fore
SplineSet
72 620 m 0x98
 72 650 96 674 126 674 c 0
 156 674 180 650 180 620 c 0
 180 590 156 566 126 566 c 0
 96 566 72 590 72 620 c 0x98
87 288 m 2xb4
 87 343 80 352 60 352 c 2
 28 352 l 1
 28 381 l 5xd4
 124 381 171 392 171 392 c 1
 168 308 168 248 168 187 c 2
 168 92 l 2
 168 57 171 29 189 29 c 2
 230 29 l 1
 230 -2 l 1
 230 -2 157 0 129 0 c 0
 100 0 25 -2 25 -2 c 1
 25 29 l 1
 67 29 l 2
 84 29 87 57 87 92 c 2
 87 288 l 2xb4
EndSplineSet
Layer: 2
SplineSet
72 620 m 4x98
 72 650 96 674 126 674 c 4
 156 674 180 650 180 620 c 4
 180 590 156 566 126 566 c 4
 96 566 72 590 72 620 c 4x98
87 288 m 6xb4
 87 343 80 352 60 352 c 6
 28 352 l 5
 28 381 l 5xd4
 124 381 171 392 171 392 c 5
 168 308 168 248 168 187 c 6
 168 95 l 6
 168 60 171 32 189 32 c 6
 230 32 l 5
 230 -2 l 5
 230 -2 157 0 129 0 c 4
 100 0 25 -2 25 -2 c 5
 25 32 l 5
 67 32 l 6
 84 32 87 60 87 95 c 6
 87 288 l 6xb4
EndSplineSet
EndChar

StartChar: j
Encoding: 106 106 9
Width: 272
VWidth: 0
Flags: HW
HStem: -248 27<4.14029 67.3437> 351 30<40 100.743> 375 20G<40 192.565> 566 108<100.676 187.324>
VStem: -89 87<-213.664 -147.02> 90 108<576.676 663.324> 109 81<-163.681 350.159>
LayerCount: 3
Fore
SplineSet
191 303 m 2xba
 190 34 l 2
 190 -12 189 -52 188 -89 c 0
 185 -190 108 -248 9 -248 c 0
 -56 -248 -89 -226 -89 -187 c 0
 -89 -165 -68 -137 -40 -137 c 0
 -16 -137 -4 -160 -2 -179 c 0
 -1 -189 -2 -207 5 -214 c 0
 11 -220 16 -221 29 -221 c 0
 109 -221 109 -106 109 -29 c 2
 109 286 l 2
 109 317 108 350 81 350 c 2
 40 350 l 1
 40 381 l 1xda
 97 381 193 394 193 394 c 1
 193 394 191 316 191 303 c 2xba
90 620 m 0x9c
 90 650 114 674 144 674 c 0
 174 674 198 650 198 620 c 0
 198 590 174 566 144 566 c 0
 114 566 90 590 90 620 c 0x9c
EndSplineSet
Layer: 2
SplineSet
188 -89 m 4xfa
 185 -190 108 -248 9 -248 c 4
 -56 -248 -89 -226 -89 -187 c 4
 -89 -165 -68 -137 -40 -137 c 4
 -16 -137 -4 -160 -2 -179 c 4
 -1 -189 -2 -207 5 -214 c 4
 11 -220 16 -221 29 -221 c 4
 109 -221 109 -106 109 -29 c 6
 109 25 l 6
 109 122 109 220 107 313 c 4
 107 329 104 344 91 344 c 4
 85 344 76 341 62 339 c 4
 50 337 48 346 48 355 c 4
 48 362 49 370 60 371 c 4
 108 376 170 392 181 392 c 4
 194 392 192 383 192 373 c 6
 192 373 190 322 190 180 c 6
 190 34 l 6
 190 -12 189 -52 188 -89 c 4xfa
90 620 m 4xfc
 90 650 114 674 144 674 c 4
 174 674 198 650 198 620 c 4
 198 590 174 566 144 566 c 4
 114 566 90 590 90 620 c 4xfc
EndSplineSet
EndChar

StartChar: k
Encoding: 107 107 10
Width: 476
VWidth: 0
Flags: HW
HStem: -2 34<28 80.8107 170.339 213 255 278.991 402.283 460> 353 29<243 281.011 354.046 404> 625 31<20 79.1518>
VStem: 85 81<32 176.995 197 623.873>
LayerCount: 3
Back
SplineSet
335 326 m 4
 292 294 251 251 224 220 c 5
 266 178 331 106 400 49 c 4
 418 34 425 32 460 30 c 5
 460 -2 l 5
 460 -2 402 0 374 0 c 4
 345 0 255 -2 255 -2 c 5
 255 30 l 5
 266 30 279 31 279 40 c 4
 279 49 267 63 264 66 c 4
 243 94 217 121 184 163 c 4
 182 166 179 171 176 171 c 4
 169 171 166 163 166 146 c 6
 166 95 l 6
 166 60 169 32 187 32 c 6
 213 32 l 5
 213 -2 l 5
 213 -2 155 0 127 0 c 4
 98 0 28 -2 28 -2 c 5
 28 32 l 5
 65 32 l 6
 82 32 85 60 85 95 c 6
 85 524 l 6
 85 613 85 625 49 625 c 4
 41 625 32 625 20 624 c 5
 20 656 l 5
 66 658 120 665 169 675 c 5
 168 545 163 299 163 197 c 5
 182 215 283 308 283 331 c 4
 283 344 269 350 243 353 c 5
 243 383 l 5
 243 383 291 381 320 381 c 4
 348 381 404 383 404 383 c 5
 404 353 l 5
 370 349 353 340 335 326 c 4
EndSplineSet
Fore
SplineSet
224 220 m 1
 394 49 402 32 460 29 c 1
 460 -2 l 1
 460 -2 402 0 374 0 c 0
 345 0 260 -2 260 -2 c 1
 260 29 l 1
 278 30 285 33 285 39 c 0
 285 46 273 57 261 71 c 2
 184 163 l 2
 178 170 173 177 170 177 c 0
 167 177 166 170 166 151 c 2
 166 92 l 2
 166 57 169 29 187 29 c 2
 213 29 l 1
 213 -2 l 1
 213 -2 155 0 127 0 c 0
 98 0 28 -2 28 -2 c 1
 28 29 l 1
 65 29 l 2
 82 29 85 57 85 92 c 2
 85 524 l 2
 85 613 85 625 49 625 c 0
 41 625 32 625 20 624 c 1
 20 653 l 1
 66 655 120 662 169 672 c 1
 168 542 163 299 163 197 c 1
 182 215 283 308 283 331 c 0
 283 344 269 350 243 353 c 1
 243 382 l 1
 243 382 291 380 320 380 c 0
 348 380 404 382 404 382 c 1
 404 353 l 1
 346 351 298 299 224 220 c 1
EndSplineSet
Layer: 2
SplineSet
224 220 m 5
 394 49 402 33 460 30 c 5
 460 -2 l 5
 460 -2 402 0 374 0 c 4
 345 0 255 -2 255 -2 c 5
 255 30 l 5
 266 30 279 31 279 41 c 4
 279 53 249 84 184 163 c 4
 178 170 173 177 170 177 c 4
 167 177 166 170 166 151 c 6
 166 95 l 6
 166 60 169 32 187 32 c 6
 213 32 l 5
 213 -2 l 5
 213 -2 155 0 127 0 c 4
 98 0 28 -2 28 -2 c 5
 28 32 l 5
 65 32 l 6
 82 32 85 60 85 95 c 6
 85 524 l 6
 85 613 85 625 49 625 c 4
 41 625 32 625 20 624 c 5
 20 656 l 5
 66 658 120 665 169 675 c 5
 168 545 163 299 163 197 c 5
 182 215 283 308 283 331 c 4
 283 344 269 350 243 353 c 5
 243 382 l 5
 243 382 291 380 320 380 c 4
 348 380 404 382 404 382 c 5
 404 353 l 5
 346 351 298 299 224 220 c 5
EndSplineSet
EndChar

StartChar: l
Encoding: 108 108 11
Width: 262
VWidth: 0
Flags: HW
HStem: 1 32<27 87.5092 177.654 239> 625 31<27 86.1518>
VStem: 92 81<33 623.873>
LayerCount: 3
Fore
SplineSet
173 92 m 2
 173 57 176 29 194 29 c 2
 239 29 l 1
 239 -2 l 1
 239 -2 162 1 134 1 c 0
 105 1 27 -2 27 -2 c 1
 27 29 l 1
 72 29 l 2
 89 29 92 57 92 92 c 2
 92 524 l 2
 92 613 92 625 56 625 c 0
 48 625 39 625 27 624 c 1
 27 653 l 1
 73 655 127 662 176 672 c 1
 176 672 173 529 173 389 c 2
 173 92 l 2
EndSplineSet
Layer: 2
SplineSet
173 96 m 6
 173 61 176 33 194 33 c 6
 239 33 l 5
 239 -1 l 5
 239 -1 162 1 134 1 c 4
 105 1 27 -1 27 -1 c 5
 27 33 l 5
 72 33 l 6
 89 33 92 61 92 96 c 6
 92 524 l 6
 92 613 92 625 56 625 c 4
 48 625 39 625 27 624 c 5
 27 656 l 5
 73 658 127 665 176 675 c 5
 176 675 173 529 173 389 c 6
 173 96 l 6
EndSplineSet
EndChar

StartChar: m
Encoding: 109 109 12
Width: 740
VWidth: 0
Flags: W
HStem: -2 31<33 85.5092 175.654 223 276 328.509 418.654 466 519 571.509 661.654 714> 352 29<33 81.7082> 360 32<234.779 311.288 468.812 552.554>
VStem: 90 81<29 301.742 320.805 351.159> 90 74<302.143 351.159> 333 81<29 322.393> 576 81<29 342.795>
LayerCount: 3
Fore
SplineSet
166 302 m 1xce
 166 302 202 392 299 392 c 0
 343 392 394 368 411 321 c 1
 425 350 467 392 541 392 c 0
 621 392 657 349 657 269 c 2
 657 92 l 2
 657 57 660 29 678 29 c 2
 714 29 l 1
 714 -2 l 1
 714 -2 646 0 618 0 c 0
 589 0 519 -2 519 -2 c 1
 519 29 l 1
 556 29 l 2
 573 29 576 57 576 92 c 2
 576 246 l 2
 576 312 571 360 503 360 c 0
 473 360 434 333 424 301 c 0
 419 283 414 254 414 191 c 2
 414 92 l 2
 414 57 417 29 435 29 c 2
 466 29 l 1
 466 -2 l 1
 466 -2 403 0 375 0 c 0
 346 0 276 -2 276 -2 c 1
 276 29 l 1
 313 29 l 2
 330 29 333 57 333 92 c 2
 333 248 l 2
 333 304 326 360 275 360 c 0
 208 360 171 287 171 203 c 2
 171 92 l 2
 171 57 174 29 192 29 c 2
 223 29 l 1
 223 -2 l 1
 223 -2 160 0 132 0 c 0
 103 0 33 -2 33 -2 c 1
 33 29 l 1
 70 29 l 2
 87 29 90 57 90 92 c 2
 90 288 l 2xb6
 90 319 89 352 62 352 c 2
 33 352 l 1
 33 381 l 1
 90 381 141 386 168 394 c 1
 166 365 164 337 164 320 c 0
 164 311 165 305 166 302 c 1xce
EndSplineSet
Layer: 2
SplineSet
166 302 m 5xce
 166 302 202 392 299 392 c 4
 343 392 394 368 411 321 c 5
 425 350 467 392 541 392 c 4
 621 392 657 349 657 269 c 6
 657 95 l 6
 657 60 660 32 678 32 c 6
 714 32 l 5
 714 -2 l 5
 714 -2 646 0 618 0 c 4
 589 0 519 -2 519 -2 c 5
 519 32 l 5
 556 32 l 6
 573 32 576 60 576 95 c 6
 576 246 l 6
 576 312 571 360 503 360 c 4
 473 360 434 333 424 301 c 4
 419 283 414 254 414 191 c 6
 414 95 l 6
 414 60 417 32 435 32 c 6
 466 32 l 5
 466 -2 l 5
 466 -2 403 0 375 0 c 4
 346 0 276 -2 276 -2 c 5
 276 32 l 5
 313 32 l 6
 330 32 333 60 333 95 c 6
 333 248 l 6
 333 304 326 360 275 360 c 4
 208 360 171 287 171 203 c 6
 171 95 l 6
 171 60 174 32 192 32 c 6
 223 32 l 5
 223 -2 l 5
 223 -2 160 0 132 0 c 4
 103 0 33 -2 33 -2 c 5
 33 32 l 5
 70 32 l 6
 87 32 90 60 90 95 c 6
 90 285 l 6xb6
 90 316 89 349 62 349 c 6
 33 349 l 5
 33 380 l 5
 90 380 141 386 168 394 c 5
 166 365 164 337 164 320 c 4
 164 311 165 305 166 302 c 5xce
EndSplineSet
EndChar

StartChar: n
Encoding: 110 110 13
Width: 506
VWidth: 0
Flags: HW
HStem: -2 34<30 82.8107 172.339 220 290 337.811 427.339 480> 351 29<30 81.5235> 360 32<238.351 319.261>
VStem: 87 81<32 299.941> 87 73<294 350.757> 342 81<32 343.89>
LayerCount: 3
Fore
SplineSet
161 294 m 1xcc
 161 294 202 392 304 392 c 0
 332 392 423 390 423 265 c 2
 423 92 l 2
 423 57 426 29 444 29 c 2
 480 29 l 1
 480 -2 l 1
 480 -2 412 0 384 0 c 0
 355 0 290 -2 290 -2 c 1
 290 29 l 1
 322 29 l 2
 339 29 342 57 342 92 c 2
 342 248 l 2
 342 304 335 360 282 360 c 0
 226 360 168 305 168 213 c 2
 168 92 l 2
 168 57 171 29 189 29 c 2
 220 29 l 1
 220 -2 l 1
 220 -2 157 0 129 0 c 0
 100 0 30 -2 30 -2 c 1
 30 29 l 1
 67 29 l 2
 84 29 87 57 87 92 c 2
 87 289 l 2xb4
 87 344 80 352 60 352 c 2
 30 352 l 1
 30 381 l 1
 117 381 166 389 166 389 c 1
 161 340 160 334 160 313 c 0
 160 306 160 299 161 294 c 1xcc
EndSplineSet
Layer: 2
SplineSet
161 294 m 5xcc
 161 294 202 392 304 392 c 4
 332 392 423 390 423 265 c 6
 423 95 l 6
 423 60 426 32 444 32 c 6
 480 32 l 5
 480 -2 l 5
 480 -2 412 0 384 0 c 4
 355 0 290 -2 290 -2 c 5
 290 32 l 5
 322 32 l 6
 339 32 342 60 342 95 c 6
 342 248 l 6
 342 304 335 360 282 360 c 4
 226 360 168 305 168 213 c 6
 168 95 l 6
 168 60 171 32 189 32 c 6
 220 32 l 5
 220 -2 l 5
 220 -2 157 0 129 0 c 4
 100 0 30 -2 30 -2 c 5
 30 32 l 5
 67 32 l 6
 84 32 87 60 87 95 c 6
 87 288 l 6xb4
 87 343 80 351 60 351 c 6
 30 351 l 5
 30 380 l 5
 117 380 166 389 166 389 c 5
 161 340 160 334 160 313 c 4
 160 306 160 299 161 294 c 5xcc
EndSplineSet
EndChar

StartChar: o
Encoding: 111 111 14
Width: 480
VWidth: 0
Flags: HW
HStem: -16 27<189.281 287.963> 373 23<191.702 284.087>
VStem: 33 91<99.3062 277.68> 350 87<101.642 289.612>
LayerCount: 3
Fore
SplineSet
441 202 m 0
 441 89 365 -16 235 -16 c 0
 121 -16 37 80 37 194 c 0
 37 315 161 396 250 396 c 0
 353 396 441 310 441 202 c 0
245 373 m 0
 161 373 128 305 128 188 c 0
 128 89 160 11 243 11 c 0
 339 11 354 114 354 198 c 0
 354 278 327 373 245 373 c 0
EndSplineSet
Layer: 2
SplineSet
439 202 m 4
 439 89 363 -16 233 -16 c 4
 119 -16 34 80 34 194 c 4
 34 315 159 396 248 396 c 4
 351 396 439 310 439 202 c 4
243 373 m 4
 159 373 126 305 126 188 c 4
 126 89 158 11 241 11 c 4
 337 11 352 114 352 198 c 4
 352 278 325 373 243 373 c 4
EndSplineSet
EndChar

StartChar: p
Encoding: 112 112 15
Width: 524
VWidth: 0
Flags: HW
HStem: -272 32<28 88.5092 175.654 242> -14 25<230.012 328.581> 356 29<36 87.2783> 366 26<234.042 329.61>
VStem: 93 78<-240 48 52.6667 320.731 323 355.757> 401 91<95.548 284.392>
LayerCount: 3
Fore
SplineSet
168 323 m 1xec
 198 364 236 392 300 392 c 0xdc
 401 392 492 311 492 188 c 0
 492 85 417 -14 294 -14 c 0
 202 -14 171 48 171 48 c 1
 171 -177 l 2
 171 -212 174 -240 192 -240 c 2
 242 -240 l 1
 242 -271 l 1
 242 -271 163 -269 135 -269 c 4
 106 -269 28 -271 28 -271 c 1
 28 -240 l 1
 73 -240 l 2
 90 -240 93 -212 93 -177 c 2
 93 293 l 2
 93 348 86 356 66 356 c 2
 36 356 l 1
 36 385 l 1
 123 385 170 394 170 394 c 1
 168 366 168 350 168 323 c 1xec
401 188 m 0
 401 285 360 366 283 366 c 0
 240 366 218 347 198 327 c 0
 172 301 171 265 171 236 c 2
 171 127 l 2
 171 31 241 11 277 11 c 0
 371 11 401 97 401 188 c 0
EndSplineSet
Layer: 2
SplineSet
168 323 m 5xec
 198 364 236 392 300 392 c 4xdc
 401 392 492 311 492 188 c 4
 492 85 417 -14 294 -14 c 4
 202 -14 171 48 171 48 c 5
 171 -177 l 6
 171 -212 174 -240 192 -240 c 6
 242 -240 l 5
 242 -274 l 5
 242 -274 163 -272 135 -272 c 4
 106 -272 28 -274 28 -274 c 5
 28 -240 l 5
 73 -240 l 6
 90 -240 93 -212 93 -177 c 6
 93 293 l 6
 93 348 86 356 66 356 c 6
 36 356 l 5
 36 385 l 5
 123 385 170 394 170 394 c 5
 168 366 168 350 168 323 c 5xec
401 188 m 4
 401 285 360 366 283 366 c 4
 240 366 218 347 198 327 c 4
 172 301 171 265 171 236 c 6
 171 127 l 6
 171 31 241 11 277 11 c 4
 371 11 401 97 401 188 c 4
EndSplineSet
EndChar

StartChar: q
Encoding: 113 113 16
Width: 478
VWidth: 0
Flags: W
HStem: -271 31<271 341.509 431.654 478> -14 30<192.889 293.381> 369 23<197.556 299.415>
VStem: 36 91<84.2984 275.297> 346 81<-240 47 49.0378 337.25>
LayerCount: 3
Fore
SplineSet
427 -177 m 2
 427 -212 430 -240 448 -240 c 2
 478 -240 l 1
 478 -271 l 1
 478 -271 416 -269 388 -269 c 0
 359 -269 271 -271 271 -271 c 1
 271 -240 l 1
 326 -240 l 2
 343 -240 346 -212 346 -177 c 2
 346 47 l 1
 323 8 276 -14 222 -14 c 0
 100 -14 36 78 36 178 c 0
 36 288 112 392 238 392 c 0
 319 392 351 343 351 343 c 1
 380 361 414 390 414 390 c 1
 431 390 l 1
 431 390 427 246 427 225 c 2
 427 -177 l 2
127 185 m 0
 127 114 148 16 251 16 c 0
 274 16 291 22 305 31 c 0
 342 54 349 112 349 168 c 2
 349 256 l 2
 349 322 318 369 250 369 c 0
 162 369 127 299 127 185 c 0
EndSplineSet
Layer: 2
SplineSet
427 -177 m 6
 427 -212 430 -240 448 -240 c 6
 478 -240 l 5
 478 -274 l 5
 478 -274 416 -272 388 -272 c 4
 359 -272 271 -274 271 -274 c 5
 271 -240 l 5
 326 -240 l 6
 343 -240 346 -212 346 -177 c 6
 346 47 l 5
 323 8 276 -14 222 -14 c 4
 100 -14 36 78 36 178 c 4
 36 288 112 392 238 392 c 4
 319 392 351 343 351 343 c 5
 380 361 414 390 414 390 c 5
 431 390 l 5
 431 390 427 246 427 225 c 6
 427 -177 l 6
127 185 m 4
 127 114 148 16 251 16 c 4
 274 16 291 22 305 31 c 4
 342 54 349 112 349 168 c 6
 349 256 l 6
 349 322 318 369 250 369 c 4
 162 369 127 299 127 185 c 4
EndSplineSet
EndChar

StartChar: r
Encoding: 114 114 17
Width: 340
VWidth: 0
Flags: W
HStem: 0 29<26 81.1946 171.983 240> 351 45<216.482 282.584> 351 30<25 79.1519>
VStem: 86 81<29 350.159> 86 74<303 350.159>
LayerCount: 3
Fore
SplineSet
167 92 m 2xd0
 167 57 170 29 188 29 c 2
 240 29 l 1
 240 -2 l 1
 240 -2 156 0 128 0 c 0
 99 0 26 -2 26 -2 c 1
 26 29 l 1
 66 29 l 2
 83 29 86 57 86 92 c 2
 86 287 l 2xd0
 86 318 85 351 58 351 c 2
 25 351 l 1
 25 381 l 1
 82 383 162 395 162 395 c 1
 160 303 l 1xa8
 179 344 223 396 275 396 c 0
 305 396 335 378 335 346 c 0
 335 323 318 302 295 302 c 0
 262 302 260 351 237 351 c 0
 218 351 190 322 177 286 c 0
 170 266 167 233 167 204 c 2
 167 92 l 2xd0
EndSplineSet
Layer: 2
SplineSet
167 95 m 6xb0
 167 60 170 32 188 32 c 6
 240 32 l 5
 240 -2 l 5
 240 -2 156 0 128 0 c 4
 99 0 26 -2 26 -2 c 5
 26 32 l 5
 66 32 l 6
 83 32 86 60 86 95 c 6
 86 285 l 6xb0
 86 316 85 349 58 349 c 6
 25 349 l 5
 25 381 l 5
 82 383 162 395 162 395 c 5
 160 303 l 5xc8
 179 344 223 396 275 396 c 4
 305 396 335 378 335 346 c 4
 335 323 318 302 295 302 c 4
 262 302 260 351 237 351 c 4
 218 351 190 322 177 286 c 4
 170 266 167 233 167 204 c 6
 167 95 l 6xb0
EndSplineSet
EndChar

StartChar: s
Encoding: 115 115 18
Width: 340
VWidth: 0
Flags: W
HStem: -16 30<121.183 220.492> -3 21G<37 57> 368 24<134.537 214.287>
VStem: 44 66<260.992 345.857> 50 18<98.4832 131> 243 69<35.3626 131.204> 264 17<268 295.585>
DStem2: 169 245 146 170 0.948683 -0.316228<-66.4736 99.9298>
LayerCount: 3
Fore
SplineSet
166 392 m 0xb4
 201 392 228 375 244 375 c 0
 255 375 267 382 274 387 c 1
 288 387 l 1
 283 336 282 321 281 268 c 1
 264 268 l 1xb2
 249 331 223 368 170 368 c 0
 130 368 110 337 110 304 c 0
 110 265 137 256 169 245 c 2
 214 230 l 2
 243 220 267 215 287 187 c 0
 305 163 312 122 312 107 c 0
 312 27 250 -16 172 -16 c 0xb4
 131 -16 102 11 85 11 c 0
 72 11 60 4 54 -3 c 1
 37 -3 l 1
 45 50 47 76 50 131 c 1
 68 131 l 1x6c
 70 123 75 106 77 97 c 0
 98 21 145 14 180 14 c 0
 216 14 243 41 243 85 c 0
 243 122 208 149 172 161 c 2
 146 170 l 2
 108 183 86 187 59 227 c 0
 49 242 44 258 44 283 c 0
 44 347 99 392 166 392 c 0xb4
EndSplineSet
Layer: 2
SplineSet
166 392 m 4xb4
 201 392 228 375 244 375 c 4
 250 375 255 377 260 379 c 6
 270 384 l 6
 273 386 276 387 278 387 c 4
 285 387 286 377 286 368 c 4
 286 349 279 312 279 276 c 4
 279 263 265 262 262 274 c 4xb2
 248 331 223 368 170 368 c 4
 130 368 110 337 110 304 c 4
 110 265 137 256 169 245 c 6
 214 230 l 6
 243 220 267 215 287 187 c 4
 305 163 312 122 312 107 c 4
 312 27 250 -16 172 -16 c 4xb4
 133 -16 99 11 92 11 c 4
 87 11 84 11 74 6 c 6
 65 1 l 6
 60 -2 56 -3 52 -3 c 4x74
 44 -3 38 3 38 14 c 4
 38 25 48 80 49 116 c 4
 49 124 54 132 59 132 c 4
 64 132 69 130 71 121 c 4xac
 72 113 75 104 77 97 c 4
 98 21 145 14 180 14 c 4
 216 14 243 41 243 85 c 4
 243 122 208 149 172 161 c 6
 146 170 l 6
 108 183 86 187 59 227 c 4
 49 242 44 258 44 283 c 4
 44 347 99 392 166 392 c 4xb4
EndSplineSet
EndChar

StartChar: t
Encoding: 116 116 19
Width: 264
VWidth: 0
Flags: HWO
HStem: -14 44<151.659 223.571> 346 37<144 238>
VStem: 59 81<38.4353 344.29> 236 21<48.07 66>
LayerCount: 3
Back
SplineSet
186 30 m 4
 205 30 226 36 236 72 c 5
 257 66 l 5
 252 28 218 -14 160 -14 c 4
 76 -14 57 42 57 71 c 4
 57 203 59 219 59 290 c 6
 59 316 l 6
 59 364 25 330 25 355 c 4
 25 365 33 370 39 376 c 4
 76 412 99 451 122 501 c 5
 147 501 l 5
 147 467 144 417 144 383 c 5
 238 383 l 5
 238 346 l 5
 140 346 l 5
 140 131 l 6
 140 76 145 30 186 30 c 4
EndSplineSet
Fore
SplineSet
186 30 m 0
 205 30 226 36 236 72 c 1
 257 66 l 1
 252 28 218 -14 160 -14 c 0
 76 -14 57 42 57 71 c 0
 57 203 59 219 59 290 c 2
 59 344 l 5
 27 344 l 1
 27 365 l 1
 27 365 35 372 39 376 c 0
 76 412 99 451 122 501 c 1
 147 501 l 1
 147 467 144 417 144 383 c 1
 238 383 l 1
 238 346 l 1
 140 346 l 1
 140 131 l 2
 140 76 145 30 186 30 c 0
EndSplineSet
Layer: 2
SplineSet
57 71 m 4
 57 203 59 219 59 290 c 6
 59 316 l 6
 59 364 25 330 25 355 c 4
 25 365 33 370 39 376 c 4
 76 412 99 451 122 501 c 5
 147 501 l 5
 147 467 144 417 144 383 c 5
 238 383 l 5
 238 346 l 5
 140 346 l 5
 140 131 l 6
 140 75 145 30 189 30 c 4
 215 30 227 40 240 72 c 5
 259 64 l 5
 249 20 217 -14 160 -14 c 4
 76 -14 57 42 57 71 c 4
EndSplineSet
EndChar

StartChar: u
Encoding: 117 117 20
Width: 498
VWidth: 0
Flags: HW
HStem: -14 38<181.878 271.057> -2 21G<349.294 482> 3 29<429.322 482> 353 28<21 69.3838 282 334.452> 370 20G<21 157.5 282 423.5>
VStem: 75 81<47.635 352.732> 341 81<36.6987 352.732>
LayerCount: 3
Fore
SplineSet
422 188 m 2x0e
 422 87 l 2
 422 27 443 34 482 32 c 1
 482 3 l 1x2e
 406 2 350 -2 350 -2 c 1x46
 350 -2 350 23 347 83 c 1
 336 58 286 -14 202 -14 c 0
 168 -14 139 -5 118 11 c 0
 89 32 75 58 75 108 c 2
 75 288 l 2
 75 343 68 352 48 352 c 2
 21 352 l 1
 21 381 l 1x96
 117 381 159 388 159 388 c 1x0e
 156 304 156 249 156 188 c 2
 156 162 l 2
 156 67 172 24 233 24 c 0
 296 24 341 91 341 158 c 2
 341 288 l 2
 341 343 334 352 314 352 c 2
 282 352 l 1
 282 381 l 1x96
 378 381 425 388 425 388 c 1
 422 304 422 249 422 188 c 2x0e
EndSplineSet
Layer: 2
SplineSet
432 188 m 6x0e
 432 87 l 6
 432 27 453 34 492 32 c 5
 492 3 l 5x2e
 416 2 360 -2 360 -2 c 5x46
 360 -2 360 23 357 83 c 5
 346 58 296 -14 212 -14 c 4
 178 -14 149 -5 128 11 c 4
 99 32 85 58 85 108 c 6
 85 289 l 6
 85 344 78 353 58 353 c 6
 31 353 l 5
 31 381 l 5x96
 127 381 169 390 169 390 c 5x0e
 166 306 166 249 166 188 c 6
 166 162 l 6
 166 67 182 24 243 24 c 4
 306 24 351 91 351 158 c 6
 351 289 l 6
 351 344 344 353 324 353 c 6
 292 353 l 5
 292 381 l 5x96
 388 381 435 390 435 390 c 5
 432 306 432 249 432 188 c 6x0e
EndSplineSet
EndChar

StartChar: v
Encoding: 118 118 21
Width: 427
VWidth: 0
Flags: HW
HStem: -11 21G<176.985 222> 353 29<10 48.7291 154.293 178 276 316.293 380.787 417>
DStem2: 157 318 56 326 0.355072 -0.934839<-16.7374 212.514> 249 141 279 145 0.408302 0.912847<-23.0954 192.357>
LayerCount: 3
Fore
SplineSet
157 318 m 0
 173 273 208 188 224 146 c 0
 231 129 234 121 237 121 c 0
 240 121 242 127 249 141 c 0
 265 173 292 235 316 291 c 0
 320 301 323 311 323 319 c 0
 323 339 309 352 276 353 c 1
 276 382 l 1
 276 382 321 380 349 380 c 0
 378 380 417 382 417 382 c 1
 417 353 l 1
 384 348 367 333 353 302 c 2
 279 145 l 2
 267 120 231 35 213 -11 c 1
 184 -11 l 1
 137 123 l 2
 113 192 88 256 56 326 c 0
 45 349 39 351 10 353 c 1
 10 382 l 1
 10 382 66 380 94 380 c 0
 123 380 183 382 183 382 c 1
 183 353 l 1
 165 353 154 345 154 335 c 0
 154 330 155 324 157 318 c 0
EndSplineSet
Layer: 2
SplineSet
157 318 m 4
 173 273 208 188 224 146 c 4
 231 129 234 121 237 121 c 4
 240 121 242 127 249 141 c 4
 265 173 292 235 316 291 c 4
 320 301 323 311 323 319 c 4
 323 339 309 351 276 352 c 5
 276 382 l 5
 276 382 321 380 349 380 c 4
 378 380 417 382 417 382 c 5
 417 352 l 5
 384 347 367 333 353 302 c 6
 279 145 l 6
 267 120 231 35 213 -11 c 5
 184 -11 l 5
 137 123 l 6
 113 192 88 256 56 326 c 4
 45 349 39 351 10 353 c 5
 10 382 l 5
 10 382 66 380 94 380 c 4
 123 380 183 382 183 382 c 5
 183 353 l 5
 165 353 154 345 154 335 c 4
 154 330 155 324 157 318 c 4
EndSplineSet
EndChar

StartChar: w
Encoding: 119 119 22
Width: 654
VWidth: 0
Flags: HW
HStem: -11 21G<160 218.211 413.382 456.68> 353 29<10 44.6737 143.236 178 260 296.327 391.508 420 503 543.293 607.787 644>
VStem: 305 86<263.846 325.857>
DStem2: 239 141 264 136 0.358503 0.933528<-22.9183 151.399> 478 138 497 114 0.38608 0.922465<-23.0242 194.416>
LayerCount: 3
Fore
SplineSet
303 326 m 0
 290 352 290 350 260 353 c 1
 260 382 l 1
 260 382 308 380 336 380 c 0
 365 380 420 382 420 382 c 1
 420 353 l 1
 402 353 391 345 391 335 c 0
 391 330 395 315 405 282 c 0
 420 235 440 175 453 143 c 0
 460 126 463 118 466 118 c 0
 469 118 471 124 478 138 c 0
 494 170 520 235 543 291 c 0
 547 301 550 311 550 319 c 0
 550 339 536 352 503 353 c 1
 503 382 l 1
 503 382 548 380 576 380 c 0
 605 380 644 382 644 382 c 1
 644 353 l 1
 611 348 594 333 580 302 c 2
 497 114 l 1
 449 -11 l 1
 420 -11 l 1
 375 125 l 2
 362 164 347 211 331 252 c 0
 326 264 324 272 322 272 c 0
 320 272 317 264 312 252 c 2
 264 136 l 2
 246 90 211 -11 211 -11 c 1
 185 -11 l 1
 135 104 98 207 50 328 c 0
 42 347 38 351 10 353 c 1
 10 382 l 1
 10 382 61 380 89 380 c 0
 118 380 178 382 178 382 c 1
 178 353 l 1
 156 353 143 348 143 336 c 0
 143 332 144 326 146 320 c 0
 158 281 196 191 214 146 c 0
 221 129 224 121 227 121 c 0
 230 121 232 127 239 141 c 0
 247 158 276 228 293 272 c 0
 299 289 305 302 305 314 c 0
 305 317 304 323 303 326 c 0
EndSplineSet
Layer: 2
SplineSet
303 326 m 4
 290 352 290 350 260 353 c 5
 260 382 l 5
 260 382 308 380 336 380 c 4
 365 380 420 382 420 382 c 5
 420 353 l 5
 402 353 391 345 391 335 c 4
 391 330 395 315 405 282 c 4
 420 235 440 175 453 143 c 4
 460 126 463 118 466 118 c 4
 469 118 471 124 478 138 c 4
 494 170 520 235 543 291 c 4
 547 301 550 311 550 319 c 4
 550 339 536 351 503 352 c 5
 503 382 l 5
 503 382 548 380 576 380 c 4
 605 380 644 382 644 382 c 5
 644 352 l 5
 611 347 594 333 580 302 c 6
 497 114 l 5
 449 -11 l 5
 420 -11 l 5
 375 125 l 6
 362 164 347 211 331 252 c 4
 326 264 324 272 322 272 c 4
 320 272 317 264 312 252 c 6
 264 136 l 6
 246 90 211 -11 211 -11 c 5
 185 -11 l 5
 135 104 98 207 50 328 c 4
 42 347 38 351 10 353 c 5
 10 382 l 5
 10 382 61 380 89 380 c 4
 118 380 178 382 178 382 c 5
 178 353 l 5
 156 353 143 348 143 336 c 4
 143 332 144 326 146 320 c 4
 158 281 196 191 214 146 c 4
 221 129 224 121 227 121 c 4
 230 121 232 127 239 141 c 4
 247 158 276 228 293 272 c 4
 299 289 305 302 305 314 c 4
 305 317 304 323 303 326 c 4
EndSplineSet
EndChar

StartChar: x
Encoding: 120 120 23
Width: 482
VWidth: 0
Flags: HW
HStem: -2 33<10 68.2804 123.015 171 252 290.406 407.969 457> 353 29<15 59.735 168.005 193 280 314.398 374.117 426>
DStem2: 180 318 69 329 0.632917 -0.77422<-25.1809 104.626 142.088 276.823> 104 79 133 66 0.656399 0.754414<-11.4908 129.931 210.995 331.487>
LayerCount: 3
Fore
SplineSet
171 29 m 1
 171 -2 l 1
 171 -2 111 0 83 0 c 0
 54 0 10 -2 10 -2 c 1
 10 29 l 1
 55 35 72 43 104 79 c 2
 193 180 l 1
 69 329 l 2
 54 347 45 351 15 353 c 1
 15 382 l 1
 15 382 76 380 104 380 c 0
 133 380 193 382 193 382 c 1
 193 353 l 1
 175 353 168 348 168 341 c 0
 168 335 173 327 180 318 c 2
 245 236 l 1
 245 236 292 289 310 320 c 0
 313 326 315 331 315 335 c 0
 315 346 302 353 280 353 c 1
 280 382 l 1
 280 382 330 380 358 380 c 0
 387 380 426 382 426 382 c 1
 426 353 l 1
 391 348 382 351 354 320 c 2
 262 216 l 1
 397 58 l 2
 422 30 425 34 457 29 c 1
 457 -2 l 1
 457 -2 389 0 361 0 c 0
 332 0 252 -2 252 -2 c 1
 252 29 l 1
 280 30 295 33 295 44 c 0
 295 49 292 56 284 66 c 2
 210 159 l 25
 133 66 l 2
 126 58 123 52 123 47 c 0
 123 35 144 31 171 29 c 1
EndSplineSet
Layer: 2
SplineSet
171 31 m 5
 171 -2 l 5
 171 -2 111 0 83 0 c 4
 54 0 10 -2 10 -2 c 5
 10 31 l 5
 55 37 72 43 104 79 c 6
 193 180 l 5
 69 329 l 6
 54 347 45 351 15 353 c 5
 15 382 l 5
 15 382 76 380 104 380 c 4
 133 380 193 382 193 382 c 5
 193 353 l 5
 175 353 168 348 168 341 c 4
 168 335 173 327 180 318 c 6
 245 236 l 5
 245 236 292 289 310 320 c 4
 313 326 315 331 315 335 c 4
 315 346 302 351 280 351 c 5
 280 382 l 5
 280 382 330 380 358 380 c 4
 387 380 426 382 426 382 c 5
 426 351 l 5
 391 346 382 351 354 320 c 6
 262 216 l 5
 397 58 l 5
 424 29 425 35 457 30 c 5
 457 -2 l 5
 457 -2 389 0 361 0 c 4
 332 0 252 -2 252 -2 c 5
 252 30 l 5
 274 31 291 38 291 51 c 4
 291 55 289 61 284 66 c 6
 210 159 l 29
 133 66 l 6
 126 58 123 52 123 47 c 4
 123 35 144 33 171 31 c 5
EndSplineSet
EndChar

StartChar: y
Encoding: 121 121 24
Width: 440
VWidth: 0
Flags: HW
HStem: -279 106<65.9826 131.859> 353 29<10 48.7291 154.667 183 289 329.293 393.787 430>
DStem2: 157 323 56 326 0.420461 -0.907311<-11.072 227.221> 208 -2 170 -179 0.379511 0.925187<-178.137 0 127.235 345.213>
LayerCount: 3
Fore
SplineSet
157 323 m 0
 174 281 215 194 235 149 c 0
 244 129 251 117 253 117 c 0
 256 117 260 126 268 142 c 0
 284 174 306 235 329 291 c 0
 333 301 336 311 336 319 c 0
 336 339 322 352 289 353 c 1
 289 382 l 1
 289 382 334 380 362 380 c 0
 391 380 430 382 430 382 c 1
 430 353 l 1
 397 348 380 333 366 302 c 2
 297 145 l 2
 286 120 256 38 238 -8 c 0
 236 -12 209 -79 181 -149 c 0
 177 -159 174 -169 170 -179 c 0
 156 -215 138 -279 92 -279 c 0
 68 -279 46 -262 46 -240 c 0
 46 -194 84 -182 110 -173 c 0
 129 -166 143 -149 152 -130 c 0
 178 -78 208 -2 208 -2 c 1
 153 123 l 2
 124 191 91 255 56 326 c 0
 45 349 39 351 10 353 c 1
 10 382 l 1
 10 382 66 380 94 380 c 0
 123 380 183 382 183 382 c 1
 183 353 l 1
 163 353 154 345 154 334 c 0
 154 330 155 327 157 323 c 0
EndSplineSet
Layer: 2
SplineSet
157 323 m 4
 174 281 215 194 235 149 c 4
 244 129 251 117 253 117 c 4
 256 117 260 126 268 142 c 4
 284 174 306 235 329 291 c 4
 333 301 336 311 336 319 c 4
 336 339 322 351 289 352 c 5
 289 382 l 5
 289 382 334 380 362 380 c 4
 391 380 430 382 430 382 c 5
 430 352 l 5
 397 347 380 333 366 302 c 6
 297 145 l 6
 286 120 256 38 238 -8 c 4
 236 -12 209 -79 181 -149 c 4
 177 -159 174 -169 170 -179 c 4
 156 -215 138 -279 92 -279 c 4
 68 -279 46 -262 46 -240 c 4
 46 -194 84 -182 110 -173 c 4
 129 -166 143 -149 152 -130 c 4
 178 -78 208 -2 208 -2 c 5
 153 123 l 6
 124 191 91 255 56 326 c 4
 45 349 39 351 10 353 c 5
 10 382 l 5
 10 382 66 380 94 380 c 4
 123 380 183 382 183 382 c 5
 183 353 l 5
 163 353 154 345 154 334 c 4
 154 330 155 327 157 323 c 4
EndSplineSet
EndChar

StartChar: z
Encoding: 122 122 25
Width: 374
VWidth: 0
Flags: W
HStem: 0 29<144.806 255.842> 353 29<111.088 227.996>
VStem: 35 26<251 290.746> 228 108<326.897 373> 318 26<93.7881 139>
DStem2: 31 30 146 53 0.529906 0.848057<60.799 371.993>
LayerCount: 3
Back
SplineSet
335 -2 m 5xe8
 335 -2 262 0 158 0 c 4
 113 0 49 -2 38 -2 c 4
 26 -2 26 5 26 14 c 4
 26 19 28 26 31 30 c 4
 78 100 144 203 186 272 c 4
 203 300 228 337 228 346 c 4
 228 353 223 353 209 353 c 6
 202 353 l 6
 192 353 131 353 106 336 c 4
 78 317 71 283 61 251 c 5
 35 251 l 5
 36 264 40 343 43 381 c 5
 43 381 163 380 208 380 c 4
 262 380 315 382 325 382 c 4
 335 382 336 375 336 367 c 4xf0
 336 360 333 352 330 348 c 4
 293 301 213 170 146 53 c 4
 143 47 133 29 148 29 c 4
 199 29 229 31 262 46 c 4
 303 64 309 103 318 139 c 5
 344 139 l 5
 340 103 336 38 335 -2 c 5xe8
EndSplineSet
Fore
SplineSet
335 -2 m 1xe8
 335 -2 262 0 158 0 c 0
 113 0 49 -2 38 -2 c 0
 26 -2 26 5 26 14 c 0
 26 19 28 26 31 30 c 0
 78 100 144 203 186 272 c 0
 203 300 228 337 228 346 c 0
 228 353 223 353 209 353 c 2
 202 353 l 2
 192 353 131 353 106 336 c 0
 78 317 71 283 61 251 c 1
 35 251 l 1
 36 264 40 345 43 383 c 1
 43 383 163 382 208 382 c 0
 262 382 315 384 325 384 c 0
 335 384 336 377 336 369 c 0xf0
 336 362 333 352 330 348 c 0
 293 301 213 170 146 53 c 0
 143 47 133 29 148 29 c 0
 199 29 229 31 262 46 c 0
 303 64 309 103 318 139 c 1
 344 139 l 1
 340 103 336 38 335 -2 c 1xe8
EndSplineSet
Layer: 2
SplineSet
337 17 m 4
 337 7 332 -2 310 -2 c 4
 302 -2 262 0 158 0 c 4
 113 0 54 -2 43 -2 c 4
 30 -2 26 5 26 13 c 4
 26 19 28 26 31 30 c 4
 78 100 144 203 186 272 c 4
 203 300 228 337 228 346 c 4
 228 353 223 353 209 353 c 6
 202 353 l 6
 192 353 131 353 106 336 c 4
 78 317 76 281 63 258 c 4
 60 253 55 248 48 248 c 4
 35 248 34 259 35 271 c 4
 37 291 39 301 40 356 c 4
 40 372 43 381 58 381 c 4
 64 381 163 380 208 380 c 4
 262 380 312 382 322 382 c 4
 330 382 336 377 336 369 c 4
 336 361 333 352 330 348 c 4
 293 301 213 170 146 53 c 4
 143 47 133 29 148 29 c 4
 199 29 229 31 262 46 c 4
 298 62 308 96 315 125 c 4
 317 133 318 141 329 141 c 4
 336 141 344 136 344 129 c 4
 344 112 340 97 339 84 c 4
 337 63 338 43 337 17 c 4
EndSplineSet
EndChar

StartChar: zero
Encoding: 48 48 52
Width: 236
VWidth: 0
Flags: W
HStem: 174 112<75.9218 164.078>
VStem: 64 112<185.922 274.078>
LayerCount: 3
Fore
SplineSet
64 230 m 0
 64 261 89 286 120 286 c 0
 151 286 176 261 176 230 c 0
 176 199 151 174 120 174 c 0
 89 174 64 199 64 230 c 0
EndSplineSet
EndChar

StartChar: one
Encoding: 49 49 53
Width: 236
VWidth: 0
Flags: W
HStem: 174 112<75.9218 164.078>
VStem: 64 112<185.922 274.078>
LayerCount: 3
Fore
SplineSet
64 230 m 0
 64 261 89 286 120 286 c 0
 151 286 176 261 176 230 c 0
 176 199 151 174 120 174 c 0
 89 174 64 199 64 230 c 0
EndSplineSet
EndChar

StartChar: two
Encoding: 50 50 54
Width: 236
VWidth: 0
Flags: W
HStem: 174 112<75.9218 164.078>
VStem: 64 112<185.922 274.078>
LayerCount: 3
Fore
SplineSet
64 230 m 0
 64 261 89 286 120 286 c 0
 151 286 176 261 176 230 c 0
 176 199 151 174 120 174 c 0
 89 174 64 199 64 230 c 0
EndSplineSet
EndChar

StartChar: three
Encoding: 51 51 55
Width: 236
VWidth: 0
Flags: W
HStem: 174 112<75.9218 164.078>
VStem: 64 112<185.922 274.078>
LayerCount: 3
Fore
SplineSet
64 230 m 0
 64 261 89 286 120 286 c 0
 151 286 176 261 176 230 c 0
 176 199 151 174 120 174 c 0
 89 174 64 199 64 230 c 0
EndSplineSet
EndChar

StartChar: four
Encoding: 52 52 56
Width: 236
VWidth: 0
Flags: W
HStem: 174 112<75.9218 164.078>
VStem: 64 112<185.922 274.078>
LayerCount: 3
Fore
SplineSet
64 230 m 0
 64 261 89 286 120 286 c 0
 151 286 176 261 176 230 c 0
 176 199 151 174 120 174 c 0
 89 174 64 199 64 230 c 0
EndSplineSet
EndChar

StartChar: five
Encoding: 53 53 57
Width: 236
VWidth: 0
Flags: W
HStem: 174 112<75.9218 164.078>
VStem: 64 112<185.922 274.078>
LayerCount: 3
Fore
SplineSet
64 230 m 0
 64 261 89 286 120 286 c 0
 151 286 176 261 176 230 c 0
 176 199 151 174 120 174 c 0
 89 174 64 199 64 230 c 0
EndSplineSet
EndChar

StartChar: six
Encoding: 54 54 58
Width: 236
VWidth: 0
Flags: W
HStem: 174 112<75.9218 164.078>
VStem: 64 112<185.922 274.078>
LayerCount: 3
Fore
SplineSet
64 230 m 0
 64 261 89 286 120 286 c 0
 151 286 176 261 176 230 c 0
 176 199 151 174 120 174 c 0
 89 174 64 199 64 230 c 0
EndSplineSet
EndChar

StartChar: seven
Encoding: 55 55 59
Width: 236
VWidth: 0
Flags: W
HStem: 174 112<75.9218 164.078>
VStem: 64 112<185.922 274.078>
LayerCount: 3
Fore
SplineSet
64 230 m 0
 64 261 89 286 120 286 c 0
 151 286 176 261 176 230 c 0
 176 199 151 174 120 174 c 0
 89 174 64 199 64 230 c 0
EndSplineSet
EndChar

StartChar: eight
Encoding: 56 56 60
Width: 236
VWidth: 0
Flags: W
HStem: 174 112<75.9218 164.078>
VStem: 64 112<185.922 274.078>
LayerCount: 3
Fore
SplineSet
64 230 m 0
 64 261 89 286 120 286 c 0
 151 286 176 261 176 230 c 0
 176 199 151 174 120 174 c 0
 89 174 64 199 64 230 c 0
EndSplineSet
EndChar

StartChar: nine
Encoding: 57 57 61
Width: 236
VWidth: 0
Flags: W
HStem: 174 112<75.9218 164.078>
VStem: 64 112<185.922 274.078>
LayerCount: 3
Fore
SplineSet
64 230 m 0
 64 261 89 286 120 286 c 0
 151 286 176 261 176 230 c 0
 176 199 151 174 120 174 c 0
 89 174 64 199 64 230 c 0
EndSplineSet
EndChar

StartChar: period
Encoding: 46 46 63
Width: 276
VWidth: 0
Flags: W
HStem: -14 122<93.1072 184.893>
VStem: 78 122<1.10723 92.8928>
LayerCount: 3
Fore
SplineSet
78 47 m 0
 78 80 106 108 139 108 c 0
 172 108 200 80 200 47 c 0
 200 14 172 -14 139 -14 c 0
 106 -14 78 14 78 47 c 0
EndSplineSet
EndChar

StartChar: colon
Encoding: 58 58 64
Width: 276
VWidth: 0
Flags: W
HStem: -14 122<93.1072 184.893> 271 122<93.1072 184.893>
VStem: 78 122<1.10723 92.8928 286.107 377.893>
LayerCount: 3
Fore
SplineSet
78 332 m 0
 78 365 106 393 139 393 c 0
 172 393 200 365 200 332 c 0
 200 299 172 271 139 271 c 0
 106 271 78 299 78 332 c 0
78 47 m 0
 78 80 106 108 139 108 c 0
 172 108 200 80 200 47 c 0
 200 14 172 -14 139 -14 c 0
 106 -14 78 14 78 47 c 0
EndSplineSet
EndChar

StartChar: semicolon
Encoding: 59 59 65
Width: 276
VWidth: 0
Flags: HW
HStem: 30 82<107.054 193.5> 271 122<93.1072 184.893>
VStem: 78 122<286.107 377.893> 198 28<-71.098 29.8588>
LayerCount: 3
Fore
SplineSet
130 -6 m 4
 97 -6 69 18 69 51 c 4
 69 84 97 112 130 112 c 4
 201 112 226 46 226 -17 c 4
 226 -86 186 -158 124 -182 c 5
 106 -148 l 5
 138 -126 198 -94 198 -7 c 4
 198 7 196 30 191 30 c 4
 187 30 166 -6 130 -6 c 4
78 332 m 0xe0
 78 365 106 393 139 393 c 0
 172 393 200 365 200 332 c 0
 200 299 172 271 139 271 c 0
 106 271 78 299 78 332 c 0xe0
EndSplineSet
Layer: 2
SplineSet
130 -6 m 4
 97 -6 69 18 69 51 c 4
 69 84 97 112 130 112 c 4
 201 112 226 46 226 -17 c 4
 226 -86 186 -158 124 -182 c 5
 106 -148 l 5
 138 -126 198 -94 198 -7 c 4
 198 7 196 30 191 30 c 4
 187 30 166 -6 130 -6 c 4
78 332 m 4xe0
 78 365 106 393 139 393 c 4
 172 393 200 365 200 332 c 4
 200 299 172 271 139 271 c 4
 106 271 78 299 78 332 c 4xe0
EndSplineSet
EndChar

StartChar: exclam
Encoding: 33 33 66
Width: 276
VWidth: 0
Flags: W
LayerCount: 3
Fore
SplineSet
78 47 m 0xc0
 78 80 106 108 139 108 c 0
 172 108 200 80 200 47 c 0
 200 14 172 -14 139 -14 c 0
 106 -14 78 14 78 47 c 0xc0
139 651 m 0
 192 651 193 515 193 482 c 2
 193 475 l 2
 193 379 174 244 139 244 c 0
 104 244 85 379 85 475 c 2
 85 482 l 2xa0
 85 515 86 651 139 651 c 0
EndSplineSet
EndChar

StartChar: question
Encoding: 63 63 67
Width: 433
VWidth: 0
Flags: HW
HStem: -14 122<95.1072 186.893> 274 29<186.364 259.492> 626 23<135.3 231.57>
VStem: 41 75<521.314 609.208> 80 122<1.10723 92.8928> 127 32<202 295.998 319.644 418> 308 90<355.624 531.32>
LayerCount: 3
Fore
SplineSet
127 202 m 1xf6
 127 418 l 1
 160 418 l 1
 160 381 l 2
 160 346 166 303 214 303 c 0
 288 303 308 382 308 458 c 0
 308 550 262 626 186 626 c 0
 141 626 116 612 116 580 c 0
 116 568 117 562 117 550 c 0
 117 528 100 516 82 516 c 0
 61 516 41 533 41 562 c 0
 41 623 124 649 192 649 c 0
 284 649 398 578 398 431 c 0
 398 345 320 274 245 274 c 0
 220 274 201 281 189 287 c 0
 184 289 174 296 167 296 c 0
 162 296 159 293 159 282 c 2
 159 202 l 1
 127 202 l 1xf6
80 47 m 0xea
 80 80 108 108 141 108 c 0
 174 108 202 80 202 47 c 0
 202 14 174 -14 141 -14 c 0
 108 -14 80 14 80 47 c 0xea
EndSplineSet
EndChar

StartChar: hyphen
Encoding: 45 45 68
Width: 276
VWidth: 0
Flags: W
HStem: 147 81<27.1638 257.836>
VStem: 27 231<147.164 227.836>
LayerCount: 3
Fore
SplineSet
258 172 m 2
 258 156 249 147 233 147 c 2
 52 147 l 2
 36 147 27 156 27 172 c 2
 27 203 l 2
 27 219 36 228 52 228 c 2
 233 228 l 2
 249 228 258 219 258 203 c 2
 258 172 l 2
EndSplineSet
EndChar

StartChar: quoteright
Encoding: 8217 8217 69
Width: 277
VWidth: 0
Flags: HW
HStem: 542 82<98.0536 184.5>
VStem: 189 28<440.902 541.859>
LayerCount: 3
Fore
SplineSet
121 513 m 0
 88 513 60 537 60 570 c 0
 60 603 88 631 121 631 c 0
 192 631 217 565 217 502 c 0
 217 433 177 361 115 337 c 1
 97 371 l 1
 129 393 189 425 189 512 c 0
 189 526 187 549 182 549 c 0
 178 549 157 513 121 513 c 0
EndSplineSet
Layer: 2
SplineSet
121 506 m 4
 88 506 60 530 60 563 c 4
 60 596 88 624 121 624 c 4
 192 624 217 558 217 495 c 4
 217 426 177 354 115 330 c 5
 97 364 l 5
 129 386 189 418 189 505 c 4
 189 519 187 542 182 542 c 4
 178 542 157 506 121 506 c 4
EndSplineSet
EndChar

StartChar: comma
Encoding: 44 44 70
Width: 276
VWidth: 0
Flags: HW
HStem: 30 82<107.054 193.5> 271 122<98.1072 189.893>
VStem: 83 122<286.107 377.893> 198 28<-71.2482 29.8588>
LayerCount: 3
Back
SplineSet
130 -6 m 4
 97 -6 69 18 69 51 c 4
 69 84 97 112 130 112 c 4
 201 112 226 46 226 -17 c 4
 226 -89 173 -175 132 -175 c 4
 116 -175 109 -168 109 -159 c 4
 109 -148 113 -144 121 -138 c 4
 146 -118 198 -90 198 -7 c 4
 198 7 196 30 191 30 c 4
 187 30 166 -6 130 -6 c 4
EndSplineSet
Fore
SplineSet
130 -6 m 0
 97 -6 69 18 69 51 c 0
 69 84 97 112 130 112 c 0
 201 112 226 46 226 -17 c 0
 226 -86 186 -158 124 -182 c 1
 106 -148 l 1
 138 -126 198 -94 198 -7 c 0
 198 7 196 30 191 30 c 0
 187 30 166 -6 130 -6 c 0
EndSplineSet
Layer: 2
SplineSet
130 -6 m 4
 97 -6 69 18 69 51 c 4
 69 84 97 112 130 112 c 4
 201 112 226 46 226 -17 c 4
 226 -86 186 -158 124 -182 c 5
 106 -148 l 5
 138 -126 198 -94 198 -7 c 4
 198 7 196 30 191 30 c 4
 187 30 166 -6 130 -6 c 4
130 -6 m 0
 97 -6 69 18 69 51 c 0
 69 84 97 112 130 112 c 0
 201 112 226 46 226 -17 c 0
 226 -89 173 -175 132 -175 c 0
 116 -175 109 -168 109 -159 c 0
 109 -148 113 -144 121 -138 c 0
 146 -118 198 -90 198 -7 c 0
 198 7 196 30 191 30 c 0
 187 30 166 -6 130 -6 c 0
EndSplineSet
EndChar

StartChar: quotedblleft
Encoding: 8220 8220 71
Width: 497
VWidth: 0
Flags: W
HStem: 337 82<92.5 178.946 312.5 398.946>
VStem: 60 28<419.141 520.392> 280 28<419.141 520.392>
LayerCount: 3
Fore
SplineSet
156 455 m 0
 189 455 217 431 217 398 c 0
 217 365 189 337 156 337 c 0
 85 337 60 403 60 466 c 0
 60 535 100 607 162 631 c 1
 180 597 l 1
 148 575 88 543 88 456 c 0
 88 442 90 419 95 419 c 0
 99 419 120 455 156 455 c 0
376 455 m 0
 409 455 437 431 437 398 c 0
 437 365 409 337 376 337 c 0
 305 337 280 403 280 466 c 0
 280 535 320 607 382 631 c 1
 400 597 l 1
 368 575 308 543 308 456 c 0
 308 442 310 419 315 419 c 0
 319 419 340 455 376 455 c 0
EndSplineSet
EndChar

StartChar: quotedblright
Encoding: 8221 8221 72
Width: 497
VWidth: 0
Flags: HW
HStem: 549 82<98.0536 184.5 318.054 404.5>
VStem: 189 28<447.608 548.859> 409 28<447.608 548.859>
LayerCount: 3
Fore
SplineSet
341 513 m 0
 308 513 280 537 280 570 c 0
 280 603 308 631 341 631 c 0
 412 631 437 565 437 502 c 0
 437 433 397 361 335 337 c 1
 317 371 l 1
 349 393 409 425 409 512 c 0
 409 526 407 549 402 549 c 0
 398 549 377 513 341 513 c 0
121 513 m 0
 88 513 60 537 60 570 c 0
 60 603 88 631 121 631 c 0
 192 631 217 565 217 502 c 0
 217 433 177 361 115 337 c 1
 97 371 l 1
 129 393 189 425 189 512 c 0
 189 526 187 549 182 549 c 0
 178 549 157 513 121 513 c 0
EndSplineSet
EndChar

StartChar: quoteleft
Encoding: 8216 8216 73
Width: 277
VWidth: 0
Flags: HW
HStem: 337 82<92.5 178.946>
VStem: 60 28<419.141 520.098>
LayerCount: 3
Fore
SplineSet
156 455 m 0
 189 455 217 431 217 398 c 0
 217 365 189 337 156 337 c 0
 85 337 60 403 60 466 c 0
 60 535 100 607 162 631 c 1
 180 597 l 1
 148 575 88 543 88 456 c 0
 88 442 90 419 95 419 c 0
 99 419 120 455 156 455 c 0
EndSplineSet
Layer: 2
SplineSet
156 455 m 4
 189 455 217 431 217 398 c 4
 217 365 189 337 156 337 c 4
 85 337 60 403 60 466 c 4
 60 535 100 607 162 631 c 5
 180 597 l 5
 148 575 88 543 88 456 c 4
 88 442 90 419 95 419 c 4
 99 419 120 455 156 455 c 4
EndSplineSet
EndChar

StartChar: endash
Encoding: 8211 8211 74
Width: 453
VWidth: 0
Flags: W
HStem: 160 53<25 428>
LayerCount: 3
Fore
SplineSet
428 176 m 2
 428 166 428 160 412 160 c 2
 41 160 l 2
 25 160 25 166 25 176 c 2
 25 197 l 2
 25 207 25 213 41 213 c 2
 412 213 l 2
 428 213 428 207 428 197 c 2
 428 176 l 2
EndSplineSet
EndChar

StartChar: emdash
Encoding: 8212 8212 75
Width: 779
VWidth: 0
Flags: W
HStem: 160 53<25 754>
LayerCount: 3
Fore
SplineSet
754 176 m 2
 754 166 754 160 738 160 c 2
 41 160 l 2
 25 160 25 166 25 176 c 2
 25 197 l 2
 25 207 25 213 41 213 c 2
 738 213 l 2
 754 213 754 207 754 197 c 2
 754 176 l 2
EndSplineSet
EndChar
